<svg width="948" height="286" viewBox="0 0 948 286" fill="none" xmlns="http://www.w3.org/2000/svg">
<rect x="3.5" y="3.5" width="941" height="279" rx="25.5" fill="white" stroke="#021032" stroke-width="7"/>
<path d="M160.077 210C152.459 210 145.541 208.722 139.324 206.166C133.168 203.55 127.896 199.959 123.508 195.395C119.181 190.831 116.011 185.567 114 179.604L131.188 173.305C133.808 179.025 137.648 183.681 142.707 187.271C147.826 190.801 153.769 192.565 160.534 192.565C167.787 192.565 173.577 190.892 177.905 187.545C182.293 184.198 184.487 179.299 184.487 172.849C184.487 168.406 183.177 164.664 180.556 161.621C177.996 158.579 174.583 156.023 170.317 153.954C166.111 151.824 161.54 149.876 156.603 148.112C152.093 146.469 147.552 144.673 142.981 142.726C138.41 140.718 134.265 138.314 130.548 135.515C126.83 132.716 123.813 129.277 121.497 125.2C119.242 121.123 118.114 116.194 118.114 110.413C118.114 104.51 119.699 99.094 122.868 94.1649C126.098 89.2357 130.73 85.2802 136.764 82.2984C142.798 79.3165 150.082 77.8256 158.614 77.8256C165.623 77.8256 171.779 78.921 177.082 81.1117C182.445 83.2416 186.864 86.193 190.338 89.9659C193.812 93.678 196.22 97.9074 197.561 102.654L180.739 108.222C179.154 104.571 176.411 101.467 172.511 98.9114C168.671 96.3556 163.643 95.0777 157.426 95.0777C151.087 95.0777 146.089 96.4469 142.433 99.1853C138.837 101.924 137.039 105.697 137.039 110.504C137.039 114.034 138.258 117.015 140.695 119.45C143.133 121.823 146.333 123.922 150.295 125.748C154.318 127.574 158.675 129.338 163.368 131.042C168.061 132.746 172.754 134.693 177.447 136.884C182.141 139.014 186.437 141.631 190.338 144.734C194.3 147.838 197.469 151.672 199.846 156.236C202.223 160.739 203.412 166.185 203.412 172.575C203.412 180.547 201.492 187.332 197.652 192.931C193.873 198.468 188.723 202.698 182.201 205.619C175.68 208.54 168.305 210 160.077 210Z" fill="#0850FF"/>
<path d="M250.392 210C241.676 210 234.149 207.931 227.81 203.793C221.532 199.655 216.687 193.904 213.274 186.541C209.922 179.178 208.246 170.688 208.246 161.074C208.246 150.85 209.983 142.118 213.457 134.876C216.992 127.574 221.898 122.005 228.176 118.172C234.514 114.277 241.92 112.33 250.392 112.33C257.584 112.33 264.135 113.912 270.047 117.076C276.02 120.18 280.774 125.018 284.309 131.59C287.905 138.101 289.703 146.469 289.703 156.692C289.703 158.153 289.642 159.917 289.521 161.986C289.46 163.995 289.307 166.064 289.063 168.193H226.622C227.109 173.366 228.359 177.93 230.37 181.886C232.442 185.78 235.185 188.823 238.598 191.014C242.011 193.204 246.034 194.3 250.666 194.3C254.749 194.3 258.467 193.6 261.819 192.2C265.172 190.74 268.31 188.488 271.236 185.446L281.841 196.856C278.184 200.689 273.704 203.854 268.402 206.349C263.099 208.783 257.096 210 250.392 210ZM226.53 153.041H271.602C271.48 148.112 270.566 143.791 268.859 140.079C267.213 136.306 264.806 133.355 261.637 131.225C258.528 129.095 254.719 128.03 250.209 128.03C243.931 128.03 238.537 130.038 234.027 134.055C229.517 138.071 227.018 144.4 226.53 153.041Z" fill="#0850FF"/>
<path d="M301.3 207.809V84.3978L319.493 76V207.809H301.3Z" fill="#0850FF"/>
<path d="M338.14 207.809V84.3978L356.334 76V207.809H338.14Z" fill="#0850FF"/>
<path d="M496.068 100.372C493.447 94.4083 489.059 89.54 482.903 85.767C482.429 85.4689 481.941 85.1823 481.44 84.9073V118.46C481.444 118.613 481.445 118.764 481.445 118.915C481.445 119.061 481.444 119.207 481.44 119.353V152.194C484.964 150.205 487.95 147.81 490.4 145.008C493.752 141.174 496.19 137.006 497.713 132.503C499.237 127.939 499.999 123.405 499.999 118.902C499.999 112.512 498.689 106.336 496.068 100.372Z" fill="#0850FF"/>
<path d="M611.511 210C598.589 210 588.411 205.649 580.975 196.947C573.54 188.184 569.822 176.287 569.822 161.256C569.822 151.215 571.498 142.544 574.85 135.241C578.263 127.939 583.078 122.31 589.295 118.354C595.572 114.338 602.978 112.33 611.511 112.33C620.104 112.33 627.51 114.307 633.726 118.263C640.004 122.158 644.819 127.756 648.171 135.059C651.523 142.361 653.199 151.033 653.199 161.074C653.199 171.175 651.493 179.877 648.08 187.18C644.727 194.482 639.943 200.111 633.726 204.067C627.51 208.022 620.104 210 611.511 210ZM611.511 192.839C618.824 192.839 624.523 190.04 628.607 184.441C632.751 178.843 634.823 171.054 634.823 161.074C634.823 151.094 632.751 143.304 628.607 137.706C624.523 132.107 618.824 129.308 611.511 129.308C604.197 129.308 598.468 132.107 594.323 137.706C590.239 143.304 588.198 151.154 588.198 161.256C588.198 171.175 590.239 178.934 594.323 184.533C598.468 190.07 604.197 192.839 611.511 192.839Z" fill="#021032"/>
<path d="M663.569 207.809V114.52H681.762V123.831C684.687 119.936 688.161 117.046 692.184 115.159C696.268 113.273 700.93 112.33 706.172 112.33C717.203 112.33 725.493 115.677 731.039 122.371C736.585 129.064 739.358 139.166 739.358 152.676V207.809H721.165V153.132C721.165 145.282 719.55 139.349 716.32 135.332C713.089 131.316 708.396 129.308 702.241 129.308C695.414 129.308 690.295 131.255 686.882 135.15C683.468 139.045 681.762 144.917 681.762 152.767V207.809H663.569Z" fill="#021032"/>
<path d="M794.392 210C785.676 210 778.149 207.931 771.811 203.793C765.533 199.655 760.687 193.904 757.274 186.541C753.922 179.178 752.246 170.688 752.246 161.074C752.246 150.85 753.983 142.118 757.457 134.876C760.992 127.574 765.899 122.005 772.176 118.172C778.515 114.277 785.92 112.33 794.392 112.33C801.584 112.33 808.136 113.912 814.048 117.076C820.021 120.18 824.775 125.018 828.31 131.59C831.906 138.101 833.704 146.469 833.704 156.692C833.704 158.153 833.643 159.917 833.521 161.986C833.46 163.995 833.308 166.064 833.064 168.193H770.622C771.11 173.366 772.359 177.93 774.37 181.886C776.443 185.78 779.185 188.823 782.598 191.014C786.012 193.204 790.034 194.3 794.666 194.3C798.75 194.3 802.468 193.6 805.82 192.2C809.172 190.74 812.311 188.488 815.236 185.446L825.842 196.856C822.185 200.689 817.705 203.854 812.402 206.349C807.1 208.783 801.096 210 794.392 210ZM770.531 153.041H815.602C815.48 148.112 814.566 143.791 812.86 140.079C811.214 136.306 808.806 133.355 805.637 131.225C802.529 129.095 798.719 128.03 794.209 128.03C787.931 128.03 782.538 130.038 778.027 134.055C773.517 138.071 771.018 144.4 770.531 153.041Z" fill="#021032"/>
<path fill-rule="evenodd" clip-rule="evenodd" d="M481.144 152.194V207.809H499.337V152.767C499.337 144.917 501.044 139.045 504.457 135.15C507.87 131.255 512.99 129.308 519.816 129.308C526.338 129.308 531.122 131.438 534.17 135.698C537.217 139.896 538.741 145.708 538.741 153.132V207.809H556.934V152.676C556.934 144.278 555.806 137.067 553.551 131.042C551.296 125.018 547.7 120.393 542.763 117.168C537.887 113.942 531.549 112.33 523.747 112.33C518.567 112.33 513.935 113.303 509.851 115.251C505.767 117.198 502.701 120.119 499.775 124.014V76L481.144 84.3978V84.9073C475.204 81.6467 467.372 80.0164 457.648 80.0164H407V207.809H425.467V157.696H457.648C465.267 157.696 471.727 156.54 477.03 154.228C478.474 153.605 479.846 152.927 481.144 152.194ZM481.144 119.353V152.194C484.668 150.205 487.654 147.81 490.103 145.008C493.456 141.174 495.894 137.006 497.417 132.503C498.941 127.939 499.703 123.405 499.703 118.902C499.703 112.512 498.392 106.336 495.772 100.372C493.151 94.4083 488.763 89.54 482.607 85.767C482.133 85.4689 481.645 85.1823 481.144 84.9073V118.46C481.082 115.544 480.42 112.404 479.041 109.317C477.822 105.91 475.598 103.05 472.367 100.737C469.137 98.4246 464.596 97.2684 458.745 97.2684H425.467V140.444H458.745C464.231 140.444 468.589 139.349 471.819 137.158C475.11 134.967 477.457 132.229 478.858 128.943C480.2 125.797 481.072 122.608 481.144 119.353ZM481.144 119.353C481.148 119.207 481.149 119.061 481.149 118.915C481.149 118.764 481.148 118.613 481.144 118.46V119.353Z" fill="#021032"/>
</svg>
