<svg width="720" height="180" viewBox="0 0 720 180" fill="none" xmlns="http://www.w3.org/2000/svg">
<path d="M46.0771 157C38.4586 157 31.5409 155.722 25.3241 153.166C19.1683 150.55 13.8963 146.959 9.50798 142.395C5.18063 137.831 2.0113 132.567 0 126.604L17.1875 120.305C19.8083 126.025 23.6481 130.681 28.7068 134.271C33.8265 137.801 39.769 139.565 46.5343 139.565C53.7871 139.565 59.5773 137.892 63.9046 134.545C68.2929 131.198 70.4871 126.299 70.4871 119.849C70.4871 115.406 69.1767 111.664 66.5559 108.621C63.996 105.579 60.5829 103.023 56.3165 100.954C52.1111 98.8238 47.5399 96.8765 42.6031 95.1117C38.0929 93.4687 33.5522 91.6735 28.9811 89.7262C24.4099 87.718 20.2654 85.3143 16.5475 82.515C12.8297 79.7157 9.81273 76.2775 7.49668 72.2003C5.24158 68.1231 4.11403 63.1939 4.11403 57.4128C4.11403 51.51 5.6987 46.094 8.86802 41.1649C12.0983 36.2357 16.7304 32.2802 22.7643 29.2984C28.7982 26.3165 36.0816 24.8256 44.6144 24.8256C51.6235 24.8256 57.7793 25.921 63.0818 28.1117C68.4453 30.2416 72.8641 33.193 76.3381 36.9659C79.8122 40.678 82.2197 44.9074 83.5605 49.654L66.7387 55.2221C65.1541 51.5709 62.4114 48.4673 58.5107 45.9114C54.6709 43.3556 49.6426 42.0777 43.4259 42.0777C37.0872 42.0777 32.0894 43.4469 28.4325 46.1853C24.8366 48.9237 23.0386 52.6966 23.0386 57.5041C23.0386 61.0336 24.2575 64.0154 26.6955 66.4496C29.1334 68.8229 32.3332 70.9223 36.2949 72.748C40.3175 74.5736 44.6753 76.3383 49.3684 78.0422C54.0614 79.7461 58.7545 81.6935 63.4475 83.8842C68.1405 86.0141 72.4374 88.6308 76.3381 91.7343C80.2998 94.8379 83.4691 98.6717 85.8461 103.236C88.2231 107.739 89.4116 113.185 89.4116 119.575C89.4116 127.547 87.4917 134.332 83.652 139.931C79.8732 145.468 74.723 149.698 68.2015 152.619C61.68 155.54 54.3052 157 46.0771 157Z" fill="#0850FF"/>
<path d="M136.392 157C127.676 157 120.149 154.931 113.81 150.793C107.532 146.655 102.687 140.904 99.2738 133.541C95.9217 126.178 94.2456 117.688 94.2456 108.074C94.2456 97.8501 95.9826 89.1176 99.4567 81.876C102.992 74.5736 107.898 69.0055 114.176 65.1717C120.514 61.277 127.92 59.3297 136.392 59.3297C143.584 59.3297 150.135 60.9119 156.047 64.0763C162.02 67.1798 166.774 72.0177 170.309 78.5899C173.905 85.1013 175.703 93.4687 175.703 103.692C175.703 105.153 175.642 106.917 175.521 108.986C175.46 110.995 175.307 113.064 175.063 115.193H112.622C113.109 120.366 114.359 124.93 116.37 128.886C118.442 132.78 121.185 135.823 124.598 138.014C128.011 140.204 132.034 141.3 136.666 141.3C140.749 141.3 144.467 140.6 147.819 139.2C151.172 137.74 154.31 135.488 157.236 132.446L167.841 143.856C164.184 147.689 159.704 150.854 154.402 153.349C149.099 155.783 143.096 157 136.392 157ZM112.53 100.041H157.602C157.48 95.1117 156.566 90.7911 154.859 87.079C153.213 83.3061 150.806 80.3547 147.637 78.2248C144.528 76.0949 140.719 75.03 136.209 75.03C129.931 75.03 124.537 77.0382 120.027 81.0545C115.517 85.0708 113.018 91.3996 112.53 100.041Z" fill="#0850FF"/>
<path d="M187.3 154.809V31.3978L205.493 23V154.809H187.3Z" fill="#0850FF"/>
<path d="M224.14 154.809V31.3978L242.334 23V154.809H224.14Z" fill="#0850FF"/>
<path d="M382.068 47.3719C379.447 41.4083 375.059 36.54 368.903 32.767C368.429 32.4689 367.941 32.1823 367.44 31.9073V65.4604C367.444 65.6126 367.445 65.7641 367.445 65.915C367.445 66.061 367.444 66.2069 367.44 66.3526V99.1938C370.964 97.2047 373.95 94.8095 376.4 92.0082C379.752 88.1744 382.19 84.0059 383.713 79.5027C385.237 74.9387 385.999 70.4051 385.999 65.9019C385.999 59.5123 384.689 53.3356 382.068 47.3719Z" fill="#0850FF"/>
<path d="M497.511 157C484.589 157 474.411 152.649 466.975 143.947C459.54 135.184 455.822 123.287 455.822 108.256C455.822 98.2153 457.498 89.5436 460.85 82.2411C464.263 74.9387 469.078 69.3097 475.295 65.3542C481.572 61.3379 488.978 59.3297 497.511 59.3297C506.104 59.3297 513.51 61.3075 519.726 65.2629C526.004 69.1576 530.819 74.7561 534.171 82.0586C537.523 89.361 539.199 98.0327 539.199 108.074C539.199 118.175 537.493 126.877 534.08 134.18C530.727 141.482 525.943 147.111 519.726 151.067C513.51 155.022 506.104 157 497.511 157ZM497.511 139.839C504.824 139.839 510.523 137.04 514.607 131.441C518.751 125.843 520.823 118.054 520.823 108.074C520.823 98.0936 518.751 90.3043 514.607 84.7057C510.523 79.1072 504.824 76.3079 497.511 76.3079C490.197 76.3079 484.468 79.1072 480.323 84.7057C476.239 90.3043 474.198 98.1544 474.198 108.256C474.198 118.175 476.239 125.934 480.323 131.533C484.468 137.07 490.197 139.839 497.511 139.839Z" fill="#021032"/>
<path d="M549.569 154.809V61.5204H567.762V70.8311C570.687 66.9364 574.161 64.0459 578.184 62.1594C582.268 60.2729 586.93 59.3297 592.172 59.3297C603.203 59.3297 611.493 62.6767 617.039 69.3706C622.585 76.0645 625.358 86.1662 625.358 99.6758V154.809H607.165V100.132C607.165 92.282 605.55 86.3488 602.32 82.3324C599.089 78.3161 594.396 76.3079 588.241 76.3079C581.414 76.3079 576.295 78.2552 572.882 82.1499C569.468 86.0445 567.762 91.9169 567.762 99.767V154.809H549.569Z" fill="#021032"/>
<path d="M680.392 157C671.676 157 664.149 154.931 657.811 150.793C651.533 146.655 646.687 140.904 643.274 133.541C639.922 126.178 638.246 117.688 638.246 108.074C638.246 97.8501 639.983 89.1176 643.457 81.876C646.992 74.5736 651.899 69.0055 658.176 65.1717C664.515 61.277 671.92 59.3297 680.392 59.3297C687.584 59.3297 694.136 60.9119 700.048 64.0763C706.021 67.1798 710.775 72.0177 714.31 78.5899C717.906 85.1013 719.704 93.4687 719.704 103.692C719.704 105.153 719.643 106.917 719.521 108.986C719.46 110.995 719.308 113.064 719.064 115.193H656.622C657.11 120.366 658.359 124.93 660.37 128.886C662.443 132.78 665.185 135.823 668.598 138.014C672.012 140.204 676.034 141.3 680.666 141.3C684.75 141.3 688.468 140.6 691.82 139.2C695.172 137.74 698.311 135.488 701.236 132.446L711.842 143.856C708.185 147.689 703.705 150.854 698.402 153.349C693.1 155.783 687.096 157 680.392 157ZM656.531 100.041H701.602C701.48 95.1117 700.566 90.7911 698.86 87.079C697.214 83.3061 694.806 80.3547 691.637 78.2248C688.529 76.0949 684.719 75.03 680.209 75.03C673.931 75.03 668.538 77.0382 664.027 81.0545C659.517 85.0708 657.018 91.3996 656.531 100.041Z" fill="#021032"/>
<path fill-rule="evenodd" clip-rule="evenodd" d="M367.144 99.1938V154.809H385.337V99.767C385.337 91.9169 387.044 86.0445 390.457 82.1499C393.87 78.2552 398.99 76.3079 405.816 76.3079C412.338 76.3079 417.122 78.4378 420.17 82.6975C423.217 86.8965 424.741 92.708 424.741 100.132V154.809H442.934V99.6758C442.934 91.2779 441.806 84.0668 439.551 78.0422C437.296 72.0177 433.7 67.3928 428.763 64.1676C423.887 60.9423 417.549 59.3297 409.747 59.3297C404.567 59.3297 399.935 60.3034 395.851 62.2507C391.767 64.198 388.701 67.119 385.775 71.0136V23L367.144 31.3978V31.9073C361.204 28.6467 353.372 27.0164 343.648 27.0164H293V154.809H311.467V104.696H343.648C351.267 104.696 357.727 103.54 363.03 101.228C364.474 100.605 365.846 99.9269 367.144 99.1938ZM367.144 66.3526V99.1938C370.668 97.2047 373.654 94.8095 376.103 92.0082C379.456 88.1744 381.894 84.0059 383.417 79.5027C384.941 74.9387 385.703 70.4051 385.703 65.9019C385.703 59.5123 384.392 53.3356 381.772 47.3719C379.151 41.4083 374.763 36.54 368.607 32.767C368.133 32.4689 367.645 32.1823 367.144 31.9073V65.4604C367.082 62.5444 366.42 59.4043 365.041 56.3174C363.822 52.9096 361.598 50.0495 358.367 47.7371C355.137 45.4246 350.596 44.2684 344.745 44.2684H311.467V87.4441H344.745C350.231 87.4441 354.589 86.3488 357.819 84.158C361.11 81.9673 363.457 79.2289 364.858 75.9428C366.2 72.7975 367.072 69.6084 367.144 66.3526ZM367.144 66.3526C367.148 66.2069 367.149 66.061 367.149 65.915C367.149 65.7641 367.148 65.6126 367.144 65.4604V66.3526Z" fill="#021032"/>
</svg>
