<svg width="226" height="45" viewBox="0 0 226 45" fill="none" xmlns="http://www.w3.org/2000/svg">
<path d="M14.405 43.8922C12.0232 43.8922 9.86059 43.4927 7.91705 42.6937C5.99257 41.8756 4.34437 40.7532 2.97247 39.3263C1.61961 37.8995 0.628791 36.2538 0 34.3894L5.37331 32.4204C6.19264 34.2087 7.39306 35.6641 8.97456 36.7865C10.5751 37.89 12.4329 38.4417 14.5479 38.4417C16.8154 38.4417 18.6256 37.9185 19.9784 36.8721C21.3503 35.8258 22.0363 34.2943 22.0363 32.2777C22.0363 30.8889 21.6266 29.7189 20.8073 28.7676C20.007 27.8164 18.94 27.0174 17.6062 26.3705C16.2914 25.7047 14.8623 25.0959 13.3189 24.5442C11.9089 24.0305 10.4894 23.4693 9.06031 22.8605C7.63124 22.2327 6.33555 21.4812 5.17324 20.6061C4.01093 19.731 3.06774 18.6561 2.34368 17.3814C1.63867 16.1068 1.28616 14.5658 1.28616 12.7584C1.28616 10.913 1.78157 9.21985 2.7724 7.67885C3.78227 6.13786 5.2304 4.90126 7.11677 3.96905C9.00315 3.03684 11.2801 2.57074 13.9477 2.57074C16.139 2.57074 18.0635 2.91319 19.7212 3.59807C21.398 4.26393 22.7794 5.18663 23.8655 6.36615C24.9516 7.52666 25.7042 8.84887 26.1234 10.3328L20.8644 12.0735C20.369 10.9321 19.5116 9.96181 18.2921 9.16277C17.0917 8.36374 15.5197 7.96422 13.5762 7.96422C11.5945 7.96422 10.0321 8.39228 8.88882 9.24838C7.76462 10.1045 7.20252 11.284 7.20252 12.787C7.20252 13.8904 7.5836 14.8226 8.34577 15.5836C9.10794 16.3255 10.1083 16.9819 11.3468 17.5526C12.6044 18.1234 13.9668 18.6751 15.434 19.2078C16.9011 19.7405 18.3683 20.3493 19.8355 21.0341C21.3027 21.7 22.646 22.5181 23.8655 23.4883C25.104 24.4586 26.0948 25.6571 26.8379 27.084C27.5811 28.4918 27.9526 30.1945 27.9526 32.1921C27.9526 34.6843 27.3524 36.8056 26.152 38.5558C24.9706 40.2871 23.3605 41.6093 21.3217 42.5225C19.2829 43.4356 16.9774 43.8922 14.405 43.8922Z" fill="#0850FF"/>
<path d="M42.6399 43.8922C39.9151 43.8922 37.5619 43.2454 35.5803 41.9517C33.6177 40.658 32.1029 38.8602 31.0358 36.5582C29.9879 34.2563 29.4639 31.6023 29.4639 28.5964C29.4639 25.4003 30.0069 22.6703 31.093 20.4063C32.1982 18.1234 33.732 16.3826 35.6946 15.1841C37.6763 13.9665 39.9914 13.3577 42.6399 13.3577C44.8883 13.3577 46.9366 13.8523 48.7849 14.8416C50.6522 15.8119 52.1385 17.3243 53.2436 19.379C54.3678 21.4146 54.9299 24.0305 54.9299 27.2267C54.9299 27.6832 54.9108 28.235 54.8727 28.8818C54.8537 29.5096 54.8061 30.1564 54.7298 30.8223H35.2087C35.3612 32.4394 35.7518 33.8663 36.3806 35.1029C37.0284 36.3204 37.8859 37.2717 38.9529 37.9565C40.0199 38.6414 41.2775 38.9839 42.7256 38.9839C44.0023 38.9839 45.1646 38.7651 46.2126 38.3275C47.2606 37.8709 48.2419 37.167 49.1565 36.2158L52.4719 39.7829C51.3286 40.9815 49.9282 41.9707 48.2704 42.7508C46.6127 43.5117 44.7359 43.8922 42.6399 43.8922ZM35.1801 26.0852H49.2708C49.2327 24.5442 48.9469 23.1934 48.4133 22.0329C47.8989 20.8534 47.1462 19.9307 46.1554 19.2649C45.1836 18.599 43.9928 18.2661 42.5827 18.2661C40.6201 18.2661 38.9338 18.8939 37.5238 20.1495C36.1138 21.4051 35.3326 23.3837 35.1801 26.0852Z" fill="#0850FF"/>
<path d="M58.5553 43.2073V4.6254L64.243 2V43.2073H58.5553Z" fill="#0850FF"/>
<path d="M70.0727 43.2073V4.6254L75.7604 2V43.2073H70.0727Z" fill="#0850FF"/>
<path d="M119.445 9.61936C118.626 7.75495 117.254 6.23298 115.33 5.05346C115.181 4.96024 115.029 4.87064 114.872 4.78468V15.2743C114.873 15.3219 114.874 15.3693 114.874 15.4165C114.874 15.4621 114.873 15.5077 114.872 15.5533V25.8204C115.974 25.1985 116.907 24.4497 117.673 23.5739C118.721 22.3754 119.483 21.0722 119.96 19.6644C120.436 18.2375 120.674 16.8202 120.674 15.4124C120.674 13.4148 120.265 11.4838 119.445 9.61936Z" fill="#0850FF"/>
<mask id="path-2-outside-1_11_8" maskUnits="userSpaceOnUse" x="90.6001" y="0" width="136" height="45" fill="black">
<rect fill="white" x="90.6001" width="136" height="45"/>
<path d="M155.536 43.8922C151.496 43.8922 148.314 42.532 145.99 39.8114C143.665 37.0719 142.503 33.3526 142.503 28.6535C142.503 25.5144 143.027 22.8034 144.075 20.5205C145.142 18.2375 146.647 16.4777 148.591 15.2411C150.553 13.9855 152.868 13.3577 155.536 13.3577C158.223 13.3577 160.538 13.976 162.481 15.2126C164.444 16.4302 165.949 18.1804 166.997 20.4634C168.045 22.7464 168.569 25.4574 168.569 28.5964C168.569 31.7545 168.036 34.475 166.968 36.758C165.92 39.0409 164.425 40.8007 162.481 42.0373C160.538 43.2739 158.223 43.8922 155.536 43.8922ZM155.536 38.5273C157.822 38.5273 159.604 37.6521 160.881 35.9019C162.176 34.1516 162.824 31.7165 162.824 28.5964C162.824 25.4764 162.176 23.0412 160.881 21.291C159.604 19.5407 157.822 18.6656 155.536 18.6656C153.249 18.6656 151.458 19.5407 150.163 21.291C148.886 23.0412 148.248 25.4954 148.248 28.6535C148.248 31.7545 148.886 34.1802 150.163 35.9304C151.458 37.6617 153.249 38.5273 155.536 38.5273Z"/>
<path d="M171.811 43.2073V14.0426H177.499V16.9534C178.413 15.7358 179.499 14.8321 180.757 14.2423C182.033 13.6526 183.491 13.3577 185.13 13.3577C188.579 13.3577 191.17 14.4041 192.904 16.4968C194.638 18.5895 195.505 21.7476 195.505 25.971V43.2073H189.817V26.1137C189.817 23.6595 189.312 21.8046 188.302 20.549C187.292 19.2934 185.825 18.6656 183.901 18.6656C181.767 18.6656 180.166 19.2744 179.099 20.4919C178.032 21.7095 177.499 23.5454 177.499 25.9996V43.2073H171.811Z"/>
<path d="M212.71 43.8922C209.985 43.8922 207.632 43.2454 205.65 41.9517C203.688 40.658 202.173 38.8602 201.106 36.5582C200.058 34.2563 199.534 31.6023 199.534 28.5964C199.534 25.4003 200.077 22.6703 201.163 20.4063C202.268 18.1234 203.802 16.3826 205.765 15.1841C207.746 13.9665 210.061 13.3577 212.71 13.3577C214.958 13.3577 217.007 13.8523 218.855 14.8416C220.722 15.8119 222.208 17.3243 223.314 19.379C224.438 21.4146 225 24.0305 225 27.2267C225 27.6832 224.981 28.235 224.943 28.8818C224.924 29.5096 224.876 30.1564 224.8 30.8223H205.279C205.431 32.4394 205.822 33.8663 206.451 35.1029C207.098 36.3204 207.956 37.2717 209.023 37.9565C210.09 38.6414 211.348 38.9839 212.796 38.9839C214.072 38.9839 215.235 38.7651 216.283 38.3275C217.331 37.8709 218.312 37.167 219.226 36.2158L222.542 39.7829C221.399 40.9815 219.998 41.9707 218.34 42.7508C216.683 43.5117 214.806 43.8922 212.71 43.8922ZM205.25 26.0852H219.341C219.303 24.5442 219.017 23.1934 218.483 22.0329C217.969 20.8534 217.216 19.9307 216.225 19.2649C215.254 18.599 214.063 18.2661 212.653 18.2661C210.69 18.2661 209.004 18.8939 207.594 20.1495C206.184 21.4051 205.403 23.3837 205.25 26.0852Z"/>
<path fill-rule="evenodd" clip-rule="evenodd" d="M114.78 25.8204V43.2073H120.467V25.9996C120.467 23.5454 121.001 21.7095 122.068 20.4919C123.135 19.2744 124.736 18.6656 126.87 18.6656C128.908 18.6656 130.404 19.3314 131.357 20.6632C132.31 21.9759 132.786 23.7927 132.786 26.1137V43.2073H138.474V25.971C138.474 23.3456 138.121 21.0912 137.416 19.2078C136.711 17.3243 135.587 15.8785 134.044 14.8702C132.519 13.8619 130.538 13.3577 128.099 13.3577C126.479 13.3577 125.031 13.6621 123.754 14.2709C122.478 14.8797 121.519 15.7929 120.604 17.0104V2L114.78 4.6254V4.78468C112.923 3.76531 110.474 3.25563 107.434 3.25563H91.6001V43.2073H97.3735V27.5406H107.434C109.816 27.5406 111.836 27.1791 113.493 26.4562C113.945 26.2615 114.374 26.0495 114.78 25.8204ZM114.78 15.5533V25.8204C115.881 25.1985 116.815 24.4497 117.581 23.5739C118.629 22.3754 119.391 21.0722 119.867 19.6644C120.343 18.2375 120.582 16.8202 120.582 15.4124C120.582 13.4148 120.172 11.4838 119.353 9.61936C118.533 7.75495 117.161 6.23298 115.237 5.05346C115.089 4.96024 114.936 4.87064 114.78 4.78468V15.2743C114.76 14.3627 114.553 13.381 114.122 12.416C113.741 11.3506 113.046 10.4564 112.036 9.73351C111.026 9.01058 109.606 8.64911 107.777 8.64911H97.3735V22.1471H107.777C109.492 22.1471 110.854 21.8046 111.864 21.1198C112.893 20.4349 113.627 19.5788 114.065 18.5514C114.485 17.5681 114.757 16.5711 114.78 15.5533ZM114.78 15.5533C114.781 15.5077 114.781 15.4621 114.781 15.4165C114.781 15.3693 114.781 15.3219 114.78 15.2743V15.5533Z"/>
</mask>
<path d="M155.536 43.8922C151.496 43.8922 148.314 42.532 145.99 39.8114C143.665 37.0719 142.503 33.3526 142.503 28.6535C142.503 25.5144 143.027 22.8034 144.075 20.5205C145.142 18.2375 146.647 16.4777 148.591 15.2411C150.553 13.9855 152.868 13.3577 155.536 13.3577C158.223 13.3577 160.538 13.976 162.481 15.2126C164.444 16.4302 165.949 18.1804 166.997 20.4634C168.045 22.7464 168.569 25.4574 168.569 28.5964C168.569 31.7545 168.036 34.475 166.968 36.758C165.92 39.0409 164.425 40.8007 162.481 42.0373C160.538 43.2739 158.223 43.8922 155.536 43.8922ZM155.536 38.5273C157.822 38.5273 159.604 37.6521 160.881 35.9019C162.176 34.1516 162.824 31.7165 162.824 28.5964C162.824 25.4764 162.176 23.0412 160.881 21.291C159.604 19.5407 157.822 18.6656 155.536 18.6656C153.249 18.6656 151.458 19.5407 150.163 21.291C148.886 23.0412 148.248 25.4954 148.248 28.6535C148.248 31.7545 148.886 34.1802 150.163 35.9304C151.458 37.6617 153.249 38.5273 155.536 38.5273Z" fill="#021032"/>
<path d="M171.811 43.2073V14.0426H177.499V16.9534C178.413 15.7358 179.499 14.8321 180.757 14.2423C182.033 13.6526 183.491 13.3577 185.13 13.3577C188.579 13.3577 191.17 14.4041 192.904 16.4968C194.638 18.5895 195.505 21.7476 195.505 25.971V43.2073H189.817V26.1137C189.817 23.6595 189.312 21.8046 188.302 20.549C187.292 19.2934 185.825 18.6656 183.901 18.6656C181.767 18.6656 180.166 19.2744 179.099 20.4919C178.032 21.7095 177.499 23.5454 177.499 25.9996V43.2073H171.811Z" fill="#021032"/>
<path d="M212.71 43.8922C209.985 43.8922 207.632 43.2454 205.65 41.9517C203.688 40.658 202.173 38.8602 201.106 36.5582C200.058 34.2563 199.534 31.6023 199.534 28.5964C199.534 25.4003 200.077 22.6703 201.163 20.4063C202.268 18.1234 203.802 16.3826 205.765 15.1841C207.746 13.9665 210.061 13.3577 212.71 13.3577C214.958 13.3577 217.007 13.8523 218.855 14.8416C220.722 15.8119 222.208 17.3243 223.314 19.379C224.438 21.4146 225 24.0305 225 27.2267C225 27.6832 224.981 28.235 224.943 28.8818C224.924 29.5096 224.876 30.1564 224.8 30.8223H205.279C205.431 32.4394 205.822 33.8663 206.451 35.1029C207.098 36.3204 207.956 37.2717 209.023 37.9565C210.09 38.6414 211.348 38.9839 212.796 38.9839C214.072 38.9839 215.235 38.7651 216.283 38.3275C217.331 37.8709 218.312 37.167 219.226 36.2158L222.542 39.7829C221.399 40.9815 219.998 41.9707 218.34 42.7508C216.683 43.5117 214.806 43.8922 212.71 43.8922ZM205.25 26.0852H219.341C219.303 24.5442 219.017 23.1934 218.483 22.0329C217.969 20.8534 217.216 19.9307 216.225 19.2649C215.254 18.599 214.063 18.2661 212.653 18.2661C210.69 18.2661 209.004 18.8939 207.594 20.1495C206.184 21.4051 205.403 23.3837 205.25 26.0852Z" fill="#021032"/>
<path fill-rule="evenodd" clip-rule="evenodd" d="M114.78 25.8204V43.2073H120.467V25.9996C120.467 23.5454 121.001 21.7095 122.068 20.4919C123.135 19.2744 124.736 18.6656 126.87 18.6656C128.908 18.6656 130.404 19.3314 131.357 20.6632C132.31 21.9759 132.786 23.7927 132.786 26.1137V43.2073H138.474V25.971C138.474 23.3456 138.121 21.0912 137.416 19.2078C136.711 17.3243 135.587 15.8785 134.044 14.8702C132.519 13.8619 130.538 13.3577 128.099 13.3577C126.479 13.3577 125.031 13.6621 123.754 14.2709C122.478 14.8797 121.519 15.7929 120.604 17.0104V2L114.78 4.6254V4.78468C112.923 3.76531 110.474 3.25563 107.434 3.25563H91.6001V43.2073H97.3735V27.5406H107.434C109.816 27.5406 111.836 27.1791 113.493 26.4562C113.945 26.2615 114.374 26.0495 114.78 25.8204ZM114.78 15.5533V25.8204C115.881 25.1985 116.815 24.4497 117.581 23.5739C118.629 22.3754 119.391 21.0722 119.867 19.6644C120.343 18.2375 120.582 16.8202 120.582 15.4124C120.582 13.4148 120.172 11.4838 119.353 9.61936C118.533 7.75495 117.161 6.23298 115.237 5.05346C115.089 4.96024 114.936 4.87064 114.78 4.78468V15.2743C114.76 14.3627 114.553 13.381 114.122 12.416C113.741 11.3506 113.046 10.4564 112.036 9.73351C111.026 9.01058 109.606 8.64911 107.777 8.64911H97.3735V22.1471H107.777C109.492 22.1471 110.854 21.8046 111.864 21.1198C112.893 20.4349 113.627 19.5788 114.065 18.5514C114.485 17.5681 114.757 16.5711 114.78 15.5533ZM114.78 15.5533C114.781 15.5077 114.781 15.4621 114.781 15.4165C114.781 15.3693 114.781 15.3219 114.78 15.2743V15.5533Z" fill="#021032"/>
<path d="M91.6001 43.2073H90.6001V44.2073H91.6001V43.2073ZM91.6001 3.25563V2.25563H90.6001V3.25563H91.6001ZM115.237 5.05346L114.704 5.89998L114.714 5.90606L115.237 5.05346ZM119.867 19.6644L120.814 19.9849L120.816 19.981L119.867 19.6644ZM117.581 23.5739L118.333 24.2322L118.333 24.2322L117.581 23.5739ZM113.493 26.4562L113.098 25.5379L113.094 25.5395L113.493 26.4562ZM97.3735 27.5406V26.5406H96.3735V27.5406H97.3735ZM97.3735 43.2073V44.2073H98.3735V43.2073H97.3735ZM97.3735 22.1471H96.3735V23.1471H97.3735V22.1471ZM111.864 21.1198L111.31 20.2873L111.303 20.2921L111.864 21.1198ZM114.065 18.5514L114.985 18.9438L114.985 18.9438L114.065 18.5514ZM114.122 12.416L113.181 12.7528L113.194 12.7889L113.209 12.8239L114.122 12.416ZM112.036 9.73351L111.454 10.5466L111.454 10.5466L112.036 9.73351ZM97.3735 8.64911V7.64911H96.3735V8.64911H97.3735ZM114.78 43.2073H113.78V44.2073H114.78V43.2073ZM114.78 4.6254L114.369 3.71373L113.78 3.97925V4.6254H114.78ZM120.604 2H121.604V0.452368L120.193 1.08833L120.604 2ZM120.604 17.0104H119.604V20.0067L121.404 17.611L120.604 17.0104ZM123.754 14.2709L123.324 13.3683L123.324 13.3683L123.754 14.2709ZM134.044 14.8702L133.492 15.7042L133.497 15.7073L134.044 14.8702ZM137.416 19.2078L136.48 19.5583L136.48 19.5583L137.416 19.2078ZM138.474 43.2073V44.2073H139.474V43.2073H138.474ZM132.786 43.2073H131.786V44.2073H132.786V43.2073ZM131.357 20.6632L130.544 21.245L130.548 21.2505L131.357 20.6632ZM122.068 20.4919L121.316 19.8329L121.316 19.8329L122.068 20.4919ZM120.467 43.2073V44.2073H121.467V43.2073H120.467ZM145.99 39.8114L145.227 40.4585L145.229 40.4611L145.99 39.8114ZM144.075 20.5205L143.169 20.097L143.166 20.1033L144.075 20.5205ZM148.591 15.2411L149.127 16.0848L149.13 16.0835L148.591 15.2411ZM162.481 15.2126L161.944 16.0564L161.954 16.0624L162.481 15.2126ZM166.968 36.758L166.063 36.3346L166.06 36.3408L166.968 36.758ZM162.481 42.0373L163.018 42.881L163.018 42.881L162.481 42.0373ZM160.881 35.9019L160.077 35.3069L160.073 35.3126L160.881 35.9019ZM160.881 21.291L160.073 21.8803L160.077 21.886L160.881 21.291ZM150.163 21.291L149.359 20.696L149.355 20.7017L150.163 21.291ZM150.163 35.9304L149.355 36.5198L149.362 36.5296L150.163 35.9304ZM171.811 43.2073H170.811V44.2073H171.811V43.2073ZM171.811 14.0426V13.0426H170.811V14.0426H171.811ZM177.499 14.0426H178.499V13.0426H177.499V14.0426ZM177.499 16.9534H176.499V19.9496L178.298 17.554L177.499 16.9534ZM180.757 14.2423L180.337 13.3345L180.332 13.337L180.757 14.2423ZM192.904 16.4968L192.134 17.1348L192.134 17.1348L192.904 16.4968ZM195.505 43.2073V44.2073H196.505V43.2073H195.505ZM189.817 43.2073H188.817V44.2073H189.817V43.2073ZM188.302 20.549L187.523 21.1757L187.523 21.1757L188.302 20.549ZM179.099 20.4919L178.347 19.8329L178.347 19.8329L179.099 20.4919ZM177.499 43.2073V44.2073H178.499V43.2073H177.499ZM205.65 41.9517L205.1 42.7867L205.104 42.7891L205.65 41.9517ZM201.106 36.5582L200.196 36.9726L200.199 36.9788L201.106 36.5582ZM201.163 20.4063L200.263 19.9706L200.261 19.9738L201.163 20.4063ZM205.765 15.1841L206.286 16.0375L206.288 16.0361L205.765 15.1841ZM218.855 14.8416L218.383 15.7233L218.394 15.729L218.855 14.8416ZM223.314 19.379L222.433 19.8527L222.438 19.8624L223.314 19.379ZM224.943 28.8818L223.944 28.823L223.944 28.8372L223.943 28.8515L224.943 28.8818ZM224.8 30.8223V31.8223H225.692L225.793 30.936L224.8 30.8223ZM205.279 30.8223V29.8223H204.18L204.283 30.9162L205.279 30.8223ZM206.451 35.1029L205.559 35.5561L205.563 35.5644L205.568 35.5726L206.451 35.1029ZM209.023 37.9565L208.483 38.7981L209.023 37.9565ZM216.283 38.3275L216.668 39.2503L216.675 39.2474L216.682 39.2443L216.283 38.3275ZM219.226 36.2158L219.959 35.535L219.239 34.7602L218.506 35.5227L219.226 36.2158ZM222.542 39.7829L223.266 40.4731L223.915 39.7918L223.274 39.1021L222.542 39.7829ZM218.34 42.7508L218.758 43.6596L218.766 43.6556L218.34 42.7508ZM205.25 26.0852L204.252 26.0288L204.192 27.0852H205.25V26.0852ZM219.341 26.0852V27.0852H220.366L220.34 26.0605L219.341 26.0852ZM218.483 22.0329L217.567 22.4327L217.571 22.4417L217.575 22.4506L218.483 22.0329ZM216.225 19.2649L215.66 20.0898L215.668 20.0948L216.225 19.2649ZM92.6001 43.2073V3.25563H90.6001V43.2073H92.6001ZM91.6001 4.25563H107.434V2.25563H91.6001V4.25563ZM114.714 5.90606C116.485 6.9911 117.709 8.36396 118.437 10.0217L120.268 9.21704C119.358 7.14594 117.838 5.47486 115.759 4.20085L114.714 5.90606ZM118.437 10.0217C119.202 11.7618 119.582 13.556 119.582 15.4124H121.582C121.582 13.2735 121.142 11.2057 120.268 9.21704L118.437 10.0217ZM119.582 15.4124C119.582 16.7054 119.363 18.0159 118.919 19.3477L120.816 19.981C121.324 18.4591 121.582 16.935 121.582 15.4124H119.582ZM118.92 19.3439C118.488 20.6188 117.796 21.8088 116.828 22.9157L118.333 24.2322C119.462 22.942 120.293 21.5256 120.814 19.9849L118.92 19.3439ZM113.094 25.5395C111.595 26.193 109.72 26.5406 107.434 26.5406V28.5406C109.912 28.5406 112.076 28.1652 113.893 27.3728L113.094 25.5395ZM107.434 26.5406H97.3735V28.5406H107.434V26.5406ZM96.3735 27.5406V43.2073H98.3735V27.5406H96.3735ZM97.3735 42.2073H91.6001V44.2073H97.3735V42.2073ZM97.3735 23.1471H107.777V21.1471H97.3735V23.1471ZM107.777 23.1471C109.614 23.1471 111.195 22.7816 112.426 21.9474L111.303 20.2921C110.513 20.8276 109.37 21.1471 107.777 21.1471V23.1471ZM112.418 21.9522C113.592 21.1713 114.462 20.1692 114.985 18.9438L113.145 18.159C112.792 18.9883 112.195 19.6984 111.31 20.2873L112.418 21.9522ZM115.064 12.0792C114.608 10.8035 113.776 9.7497 112.618 8.92039L111.454 10.5466C112.315 11.1632 112.875 11.8978 113.181 12.7528L115.064 12.0792ZM112.618 8.92039C111.375 8.03075 109.721 7.64911 107.777 7.64911V9.64911C109.492 9.64911 110.677 9.9904 111.454 10.5466L112.618 8.92039ZM107.777 7.64911H97.3735V9.64911H107.777V7.64911ZM96.3735 8.64911V22.1471H98.3735V8.64911H96.3735ZM115.191 5.53707L121.015 2.91167L120.193 1.08833L114.369 3.71373L115.191 5.53707ZM119.604 2V17.0104H121.604V2H119.604ZM121.404 17.611C122.258 16.4737 123.1 15.6907 124.185 15.1735L123.324 13.3683C121.855 14.0687 120.78 15.112 119.805 16.4098L121.404 17.611ZM124.185 15.1735C125.309 14.6375 126.606 14.3577 128.099 14.3577V12.3577C126.352 12.3577 124.753 12.6867 123.324 13.3683L124.185 15.1735ZM128.099 14.3577C130.406 14.3577 132.178 14.8349 133.492 15.7042L134.595 14.0361C132.861 12.8889 130.67 12.3577 128.099 12.3577V14.3577ZM133.497 15.7073C134.845 16.5884 135.842 17.8553 136.48 19.5583L138.353 18.8572C137.58 16.7933 136.329 15.1685 134.591 14.033L133.497 15.7073ZM136.48 19.5583C137.132 21.3012 137.474 23.4307 137.474 25.971H139.474C139.474 23.2606 139.11 20.8812 138.353 18.8572L136.48 19.5583ZM137.474 25.971V43.2073H139.474V25.971H137.474ZM138.474 42.2073H132.786V44.2073H138.474V42.2073ZM133.786 43.2073V26.1137H131.786V43.2073H133.786ZM133.786 26.1137C133.786 23.6694 133.286 21.6187 132.166 20.0758L130.548 21.2505C131.333 22.3331 131.786 23.916 131.786 26.1137H133.786ZM132.17 20.0813C130.984 18.4225 129.143 17.6656 126.87 17.6656V19.6656C128.674 19.6656 129.825 20.2403 130.544 21.245L132.17 20.0813ZM126.87 17.6656C124.545 17.6656 122.629 18.3349 121.316 19.8329L122.82 21.151C123.641 20.2138 124.927 19.6656 126.87 19.6656V17.6656ZM121.316 19.8329C120.024 21.3068 119.467 23.4237 119.467 25.9996H121.467C121.467 23.6671 121.978 22.1123 122.82 21.151L121.316 19.8329ZM119.467 25.9996V43.2073H121.467V25.9996H119.467ZM120.467 42.2073H114.78V44.2073H120.467V42.2073ZM155.536 42.8922C151.747 42.8922 148.859 41.6298 146.75 39.1618L145.229 40.4611C147.77 43.4341 151.246 44.8922 155.536 44.8922V42.8922ZM146.752 39.1644C144.623 36.655 143.503 33.1897 143.503 28.6535H141.503C141.503 33.5155 142.707 37.4888 145.227 40.4584L146.752 39.1644ZM143.503 28.6535C143.503 25.6235 144.009 23.0613 144.984 20.9377L143.166 20.1033C142.045 22.5455 141.503 25.4054 141.503 28.6535H143.503ZM144.981 20.9439C145.975 18.8165 147.359 17.2098 149.127 16.0848L148.054 14.3974C145.935 15.7457 144.309 17.6586 143.169 20.097L144.981 20.9439ZM149.13 16.0835C150.909 14.9451 153.031 14.3577 155.536 14.3577V12.3577C152.706 12.3577 150.198 13.0259 148.052 14.3988L149.13 16.0835ZM155.536 14.3577C158.065 14.3577 160.186 14.9378 161.944 16.0563L163.018 14.3689C160.889 13.0142 158.381 12.3577 155.536 12.3577V14.3577ZM161.954 16.0624C163.735 17.1673 165.115 18.7598 166.088 20.8806L167.906 20.0462C166.783 17.601 165.153 15.6931 163.008 14.3628L161.954 16.0624ZM166.088 20.8806C167.063 23.0043 167.569 25.5664 167.569 28.5964H169.569C169.569 25.3483 169.027 22.4884 167.906 20.0462L166.088 20.8806ZM167.569 28.5964C167.569 31.6442 167.054 34.2133 166.063 36.3346L167.874 37.1814C169.017 34.7368 169.569 31.8648 169.569 28.5964H167.569ZM166.06 36.3408C165.084 38.4652 163.711 40.0697 161.944 41.1936L163.018 42.881C165.139 41.5317 166.757 39.6167 167.877 37.1752L166.06 36.3408ZM161.944 41.1936C160.186 42.3121 158.065 42.8922 155.536 42.8922V44.8922C158.381 44.8922 160.889 44.2357 163.018 42.881L161.944 41.1936ZM155.536 39.5273C158.121 39.5273 160.212 38.5159 161.689 36.4912L160.073 35.3126C158.996 36.7884 157.524 37.5273 155.536 37.5273V39.5273ZM161.684 36.4969C163.152 34.5142 163.824 31.8411 163.824 28.5964H161.824C161.824 31.5918 161.201 33.789 160.077 35.3069L161.684 36.4969ZM163.824 28.5964C163.824 25.3517 163.152 22.6787 161.684 20.696L160.077 21.886C161.201 23.4038 161.824 25.6011 161.824 28.5964H163.824ZM161.689 20.7017C160.212 18.677 158.121 17.6656 155.536 17.6656V19.6656C157.524 19.6656 158.996 20.4044 160.073 21.8803L161.689 20.7017ZM155.536 17.6656C152.951 17.6656 150.854 18.6764 149.359 20.696L150.966 21.886C152.063 20.405 153.548 19.6656 155.536 19.6656V17.6656ZM149.355 20.7017C147.908 22.6853 147.248 25.3765 147.248 28.6535H149.248C149.248 25.6143 149.864 23.3971 150.971 21.8803L149.355 20.7017ZM147.248 28.6535C147.248 31.8782 147.91 34.5387 149.355 36.5197L150.971 35.3411C149.862 33.8216 149.248 31.6309 149.248 28.6535H147.248ZM149.362 36.5296C150.859 38.5296 152.955 39.5273 155.536 39.5273V37.5273C153.543 37.5273 152.058 36.7938 150.963 35.3312L149.362 36.5296ZM172.811 43.2073V14.0426H170.811V43.2073H172.811ZM171.811 15.0426H177.499V13.0426H171.811V15.0426ZM176.499 14.0426V16.9534H178.499V14.0426H176.499ZM178.298 17.554C179.124 16.4542 180.086 15.6616 181.181 15.1477L180.332 13.337C178.913 14.0027 177.702 15.0173 176.699 16.3528L178.298 17.554ZM181.176 15.1502C182.301 14.6304 183.612 14.3577 185.13 14.3577V12.3577C183.37 12.3577 181.766 12.6748 180.337 13.3345L181.176 15.1502ZM185.13 14.3577C188.368 14.3577 190.639 15.3308 192.134 17.1348L193.674 15.8588C191.701 13.4774 188.789 12.3577 185.13 12.3577V14.3577ZM192.134 17.1348C193.656 18.9722 194.505 21.8581 194.505 25.971H196.505C196.505 21.6371 195.619 18.2067 193.674 15.8588L192.134 17.1348ZM194.505 25.971V43.2073H196.505V25.971H194.505ZM195.505 42.2073H189.817V44.2073H195.505V42.2073ZM190.817 43.2073V26.1137H188.817V43.2073H190.817ZM190.817 26.1137C190.817 23.5452 190.292 21.4275 189.082 19.9223L187.523 21.1757C188.332 22.1818 188.817 23.7739 188.817 26.1137H190.817ZM189.082 19.9223C187.844 18.384 186.063 17.6656 183.901 17.6656V19.6656C185.588 19.6656 186.741 20.2028 187.523 21.1757L189.082 19.9223ZM183.901 17.6656C181.576 17.6656 179.66 18.3349 178.347 19.8329L179.851 21.151C180.672 20.2138 181.958 19.6656 183.901 19.6656V17.6656ZM178.347 19.8329C177.055 21.3068 176.499 23.4237 176.499 25.9996H178.499C178.499 23.6671 179.009 22.1123 179.851 21.151L178.347 19.8329ZM176.499 25.9996V43.2073H178.499V25.9996H176.499ZM177.499 42.2073H171.811V44.2073H177.499V42.2073ZM212.71 42.8922C210.149 42.8922 207.993 42.2865 206.197 41.1144L205.104 42.7891C207.271 44.2042 209.821 44.8922 212.71 44.8922V42.8922ZM206.201 41.1168C204.406 39.9335 203.008 38.285 202.013 36.1377L200.199 36.9788C201.337 39.4355 202.97 41.3826 205.1 42.7866L206.201 41.1168ZM202.016 36.1439C201.037 33.9942 200.534 31.4859 200.534 28.5964H198.534C198.534 31.7187 199.078 34.5183 200.196 36.9726L202.016 36.1439ZM200.534 28.5964C200.534 25.5105 201.058 22.9362 202.065 20.8389L200.261 19.9738C199.095 22.4043 198.534 25.2901 198.534 28.5964H200.534ZM202.063 20.842C203.094 18.7134 204.504 17.1259 206.286 16.0375L205.243 14.3306C203.1 15.6394 201.443 17.5334 200.263 19.9706L202.063 20.842ZM206.288 16.0361C208.091 14.9281 210.22 14.3577 212.71 14.3577V12.3577C209.903 12.3577 207.401 13.0048 205.241 14.332L206.288 16.0361ZM212.71 14.3577C214.806 14.3577 216.69 14.8173 218.383 15.7233L219.327 13.96C217.323 12.8874 215.111 12.3577 212.71 12.3577V14.3577ZM218.394 15.729C220.064 16.5967 221.412 17.9549 222.433 19.8527L224.194 18.9053C223.005 16.6938 221.381 15.0271 219.316 13.9543L218.394 15.729ZM222.438 19.8624C223.456 21.705 224 24.1393 224 27.2267H226C226 23.9218 225.42 21.1243 224.189 18.8956L222.438 19.8624ZM224 27.2267C224 27.6574 223.982 28.1883 223.944 28.823L225.941 28.9406C225.98 28.2816 226 27.7091 226 27.2267H224ZM223.943 28.8515C223.925 29.4497 223.88 30.0686 223.806 30.7086L225.793 30.936C225.873 30.2443 225.922 29.5696 225.942 28.9121L223.943 28.8515ZM224.8 29.8223H205.279V31.8223H224.8V29.8223ZM204.283 30.9162C204.445 32.6375 204.865 34.1899 205.559 35.5561L207.342 34.6496C206.779 33.5426 206.417 32.2413 206.274 30.7285L204.283 30.9162ZM205.568 35.5726C206.289 36.9277 207.259 38.0127 208.483 38.7981L209.563 37.115C208.653 36.5307 207.908 35.7131 207.333 34.6331L205.568 35.5726ZM208.483 38.7981C209.733 39.6006 211.184 39.9839 212.796 39.9839V37.9839C211.511 37.9839 210.447 37.6823 209.563 37.115L208.483 38.7981ZM212.796 39.9839C214.188 39.9839 215.484 39.7448 216.668 39.2503L215.897 37.4047C214.986 37.7854 213.956 37.9839 212.796 37.9839V39.9839ZM216.682 39.2443C217.868 38.7276 218.955 37.9406 219.947 36.9089L218.506 35.5227C217.668 36.3934 216.793 37.0143 215.883 37.4108L216.682 39.2443ZM218.494 36.8966L221.809 40.4637L223.274 39.1021L219.959 35.535L218.494 36.8966ZM221.818 39.0927C220.769 40.1929 219.473 41.1129 217.915 41.8459L218.766 43.6556C220.524 42.8286 222.028 41.77 223.266 40.4731L221.818 39.0927ZM217.923 41.8419C216.415 42.5345 214.683 42.8922 212.71 42.8922V44.8922C214.928 44.8922 216.951 44.489 218.758 43.6596L217.923 41.8419ZM205.25 27.0852H219.341V25.0852H205.25V27.0852ZM220.34 26.0605C220.3 24.4111 219.993 22.9219 219.392 21.6152L217.575 22.4506C218.041 23.4649 218.306 24.6772 218.341 26.1099L220.34 26.0605ZM219.4 21.6331C218.816 20.2931 217.945 19.2153 216.783 18.4349L215.668 20.0948C216.488 20.6461 217.122 21.4137 217.567 22.4327L219.4 21.6331ZM216.791 18.4399C215.622 17.6391 214.224 17.2661 212.653 17.2661V19.2661C213.901 19.2661 214.885 19.5589 215.66 20.0898L216.791 18.4399ZM212.653 17.2661C210.456 17.2661 208.53 17.9771 206.929 19.4027L208.259 20.8963C209.478 19.8107 210.925 19.2661 212.653 19.2661V17.2661ZM206.929 19.4027C205.248 20.8995 204.413 23.1777 204.252 26.0288L206.249 26.1415C206.393 23.5897 207.12 21.9107 208.259 20.8963L206.929 19.4027ZM113.78 25.8204V43.2073H115.78V25.8204H113.78ZM113.78 4.6254V4.78468H115.78V4.6254H113.78ZM115.261 3.90807C113.206 2.78014 110.574 2.25563 107.434 2.25563V4.25563C110.375 4.25563 112.639 4.75048 114.299 5.66129L115.261 3.90807ZM113.889 27.3744C114.372 27.1664 114.833 26.9388 115.271 26.6912L114.288 24.9495C113.915 25.1603 113.518 25.3565 113.098 25.5379L113.889 27.3744ZM113.78 15.5533V25.8204H115.78V15.5533H113.78ZM115.271 26.6912C116.463 26.0186 117.487 25.2002 118.333 24.2322L116.828 22.9157C116.143 23.6992 115.3 24.3784 114.288 24.9495L115.271 26.6912ZM115.769 4.20699C115.604 4.103 115.435 4.00338 115.261 3.90807L114.299 5.66128C114.438 5.73791 114.573 5.81747 114.704 5.89993L115.769 4.20699ZM113.78 4.78468V15.2743H115.78V4.78468H113.78ZM115.779 15.253C115.757 14.2071 115.52 13.0941 115.035 12.0081L113.209 12.8239C113.586 13.6679 113.763 14.5183 113.78 15.2957L115.779 15.253ZM114.985 18.9438C115.437 17.883 115.753 16.7577 115.779 15.5755L113.78 15.5311C113.761 16.3845 113.532 17.2532 113.145 18.1591L114.985 18.9438ZM115.779 15.5755C115.781 15.5225 115.781 15.4695 115.781 15.4165H113.781C113.781 15.4547 113.781 15.4929 113.78 15.5311L115.779 15.5755ZM115.781 15.4165C115.781 15.3623 115.781 15.3077 115.779 15.2529L113.78 15.2958C113.781 15.3361 113.781 15.3763 113.781 15.4165H115.781ZM113.78 15.2743V15.5533H115.78V15.2743H113.78Z" fill="white" mask="url(#path-2-outside-1_11_8)"/>
</svg>
