<svg width="723" height="180" viewBox="0 0 723 180" fill="none" xmlns="http://www.w3.org/2000/svg">
<path d="M293 155.809V154.809V27.0164V26.0164H294H344.648C353.963 26.0164 361.652 27.4954 367.656 30.5209L367.733 30.4862L386.364 22.0883L387.775 21.4524V23V68.1661C390.262 65.2721 392.99 62.9842 396.421 61.3481C400.657 59.3279 405.439 58.3297 410.747 58.3297C418.679 58.3297 425.227 59.9688 430.312 63.3318C435.443 66.6842 439.165 71.4876 441.488 77.6917C443.795 83.8567 444.934 91.1929 444.934 99.6758V154.809V155.809H443.934H425.741H424.741V154.809V100.132C424.741 92.8313 423.241 87.2536 420.36 83.2849L420.356 83.2794C417.543 79.3467 413.104 77.3079 406.816 77.3079C400.181 77.3079 395.377 79.1947 392.209 82.8089C389.021 86.4473 387.337 92.0386 387.337 99.767V154.809V155.809H386.337H368.144H367.144V154.809V100.867C366.267 101.316 365.361 101.742 364.427 102.146C364.426 102.146 364.426 102.146 364.426 102.146L364.03 101.228C358.727 103.54 352.267 104.696 344.648 104.696L293 155.809ZM293 155.809H294H312.467H313.467V154.809V105.696L293 155.809ZM367.144 65.4711V66.3413C367.074 69.429 366.246 72.4861 364.939 75.5504C363.621 78.6385 361.412 81.2309 358.265 83.3256L358.258 83.3304C355.248 85.3718 351.109 86.4441 345.745 86.4441H313.467V45.2684H345.745C351.482 45.2684 355.788 46.4044 358.785 48.5502C361.867 50.7562 363.956 53.4568 365.1 56.6542L365.113 56.6903L365.128 56.7253C366.451 59.6874 367.084 62.6924 367.144 65.4711ZM467.213 144.594L467.215 144.596C474.867 153.551 485.339 158 498.511 158C507.262 158 514.861 155.984 521.263 151.91C527.656 147.843 532.562 142.06 535.987 134.601C539.475 127.137 541.199 118.284 541.199 108.074C541.199 97.9236 539.505 89.1031 536.08 81.6414C532.654 74.1787 527.715 68.4236 521.259 64.4164C514.857 60.3447 507.26 58.3297 498.511 58.3297C489.816 58.3297 482.218 60.3781 475.757 64.5112C469.365 68.5783 464.43 74.3601 460.944 81.8177L460.941 81.824C457.516 89.2857 455.822 98.1062 455.822 108.256C455.822 123.45 459.582 135.601 467.213 144.594ZM514.803 130.846L514.799 130.852C510.915 136.176 505.526 138.839 498.511 138.839C491.493 138.839 486.07 136.204 482.127 130.938C478.214 125.571 476.198 118.049 476.198 108.256C476.198 98.2745 478.217 90.6619 482.13 85.2969C486.074 79.9702 491.497 77.3079 498.511 77.3079C505.526 77.3079 510.915 79.9709 514.799 85.295L514.803 85.3007C518.775 90.6668 520.823 98.2182 520.823 108.074C520.823 117.929 518.775 125.48 514.803 130.846ZM549.569 154.809V155.809H550.569H568.762H569.762V154.809V99.767C569.762 92.0386 571.445 86.4473 574.634 82.8089C577.801 79.1947 582.605 77.3079 589.241 77.3079C595.159 77.3079 599.538 79.2255 602.54 82.9592C605.57 86.7259 607.165 92.3964 607.165 100.132V154.809V155.809H608.165H626.358H627.358V154.809V99.6758C627.358 86.0557 624.567 75.6817 618.809 68.7326C613.023 61.75 604.414 58.3297 593.172 58.3297C587.809 58.3297 583 59.2952 578.765 61.2516L578.759 61.254C575.378 62.8399 572.379 65.1044 569.762 68.0326V61.5204V60.5204H568.762H550.569H549.569V61.5204V154.809ZM658.26 151.628L658.264 151.63C664.789 155.89 672.512 158 681.392 158C688.219 158 694.368 156.76 699.82 154.258L699.828 154.254C705.23 151.712 709.814 148.478 713.565 144.546L714.215 143.864L713.574 143.175L702.969 131.765L702.249 130.99L701.516 131.752C698.669 134.713 695.639 136.88 692.427 138.281C689.213 139.621 685.631 140.3 681.666 140.3C677.198 140.3 673.369 139.245 670.139 137.172C666.885 135.083 664.256 132.177 662.258 128.424C660.456 124.878 659.276 120.806 658.733 116.193H720.064H720.956L721.057 115.307C721.304 113.156 721.458 111.064 721.52 109.031C721.642 106.956 721.704 105.175 721.704 103.692C721.704 93.3625 719.889 84.8152 716.188 78.1115C712.57 71.3868 707.681 66.3974 701.515 63.1919C695.448 59.9461 688.734 58.3297 681.392 58.3297C672.762 58.3297 665.17 60.3154 658.653 64.3196C652.196 68.2636 647.166 73.9845 643.557 81.4403L643.556 81.4435C640.002 88.8517 638.246 97.74 638.246 108.074C638.246 117.805 639.943 126.44 643.364 133.955L643.367 133.961C646.852 141.479 651.815 147.379 658.26 151.628ZM698.943 87.4788L698.947 87.4878L698.951 87.4967C700.473 90.8075 701.352 94.6496 701.565 99.0409H658.6C659.217 91.1034 661.631 85.418 665.692 81.8013C670.012 77.955 675.166 76.03 681.209 76.03C685.558 76.03 689.16 77.0548 692.072 79.0498L692.079 79.0548C695.078 81.0701 697.367 83.8664 698.943 87.4788Z" fill="#021032" stroke="white" stroke-width="2"/>
<path d="M46.0771 157C38.4586 157 31.5409 155.722 25.3241 153.166C19.1683 150.55 13.8963 146.959 9.50798 142.395C5.18063 137.831 2.0113 132.567 0 126.604L17.1875 120.305C19.8083 126.025 23.6481 130.681 28.7068 134.271C33.8265 137.801 39.769 139.565 46.5343 139.565C53.7871 139.565 59.5773 137.892 63.9046 134.545C68.2929 131.198 70.4871 126.299 70.4871 119.849C70.4871 115.406 69.1767 111.664 66.5559 108.621C63.996 105.579 60.5829 103.023 56.3165 100.954C52.1111 98.8238 47.5399 96.8765 42.6031 95.1117C38.0929 93.4687 33.5522 91.6735 28.9811 89.7262C24.4099 87.718 20.2654 85.3143 16.5475 82.515C12.8297 79.7157 9.81273 76.2775 7.49668 72.2003C5.24158 68.1231 4.11403 63.1939 4.11403 57.4128C4.11403 51.51 5.6987 46.094 8.86802 41.1649C12.0983 36.2357 16.7304 32.2802 22.7643 29.2984C28.7982 26.3165 36.0816 24.8256 44.6144 24.8256C51.6235 24.8256 57.7793 25.921 63.0818 28.1117C68.4453 30.2416 72.8641 33.193 76.3381 36.9659C79.8122 40.678 82.2197 44.9074 83.5605 49.654L66.7387 55.2221C65.1541 51.5709 62.4114 48.4673 58.5107 45.9114C54.6709 43.3556 49.6426 42.0777 43.4259 42.0777C37.0872 42.0777 32.0894 43.4469 28.4325 46.1853C24.8366 48.9237 23.0386 52.6966 23.0386 57.5041C23.0386 61.0336 24.2575 64.0154 26.6955 66.4496C29.1334 68.8229 32.3332 70.9223 36.2949 72.748C40.3175 74.5736 44.6753 76.3383 49.3684 78.0422C54.0614 79.7461 58.7545 81.6935 63.4475 83.8842C68.1405 86.0141 72.4374 88.6308 76.3381 91.7343C80.2998 94.8379 83.4691 98.6717 85.8461 103.236C88.2231 107.739 89.4116 113.185 89.4116 119.575C89.4116 127.547 87.4917 134.332 83.652 139.931C79.8732 145.468 74.723 149.698 68.2015 152.619C61.68 155.54 54.3052 157 46.0771 157Z" fill="#0850FF"/>
<path d="M136.392 157C127.676 157 120.149 154.931 113.81 150.793C107.532 146.655 102.687 140.904 99.2738 133.541C95.9217 126.178 94.2456 117.688 94.2456 108.074C94.2456 97.8501 95.9826 89.1176 99.4567 81.876C102.992 74.5736 107.898 69.0055 114.176 65.1717C120.514 61.277 127.92 59.3297 136.392 59.3297C143.584 59.3297 150.135 60.9119 156.047 64.0763C162.02 67.1798 166.774 72.0177 170.309 78.5899C173.905 85.1013 175.703 93.4687 175.703 103.692C175.703 105.153 175.642 106.917 175.521 108.986C175.46 110.995 175.307 113.064 175.063 115.193H112.622C113.109 120.366 114.359 124.93 116.37 128.886C118.442 132.78 121.185 135.823 124.598 138.014C128.011 140.204 132.034 141.3 136.666 141.3C140.749 141.3 144.467 140.6 147.819 139.2C151.172 137.74 154.31 135.488 157.236 132.446L167.841 143.856C164.184 147.689 159.704 150.854 154.402 153.349C149.099 155.783 143.096 157 136.392 157ZM112.53 100.041H157.602C157.48 95.1117 156.566 90.7911 154.859 87.079C153.213 83.3061 150.806 80.3547 147.637 78.2248C144.528 76.0949 140.719 75.03 136.209 75.03C129.931 75.03 124.537 77.0382 120.027 81.0545C115.517 85.0708 113.018 91.3996 112.53 100.041Z" fill="#0850FF"/>
<path d="M187.3 154.809V31.3978L205.493 23V154.809H187.3Z" fill="#0850FF"/>
<path d="M224.14 154.809V31.3978L242.334 23V154.809H224.14Z" fill="#0850FF"/>
<path d="M382.068 47.3719C379.447 41.4083 375.059 36.54 368.903 32.767C368.429 32.4689 367.941 32.1823 367.44 31.9073V65.4604C367.444 65.6126 367.445 65.7641 367.445 65.915C367.445 66.061 367.444 66.2069 367.44 66.3526V99.1938C370.964 97.2047 373.95 94.8095 376.4 92.0082C379.752 88.1744 382.19 84.0059 383.713 79.5027C385.237 74.9387 385.999 70.4051 385.999 65.9019C385.999 59.5123 384.689 53.3356 382.068 47.3719Z" fill="#0850FF"/>
</svg>
